<svg width="262" height="466" viewBox="0 0 262 466" fill="none" xmlns="http://www.w3.org/2000/svg">
<g clip-path="url(#clip0_2_7)">
<path d="M69.2871 399.902H191.895C199.219 399.902 204.932 393.823 204.932 386.792C204.932 379.688 199.219 373.682 191.895 373.682H69.2871C61.9629 373.682 56.25 379.688 56.25 386.792C56.25 393.823 61.9629 399.902 69.2871 399.902ZM130.518 457.178C161.133 457.178 184.717 442.529 186.621 420.41H74.1211C75.8057 442.529 99.8291 457.178 130.518 457.178Z" fill="white" fill-opacity="0.85"/>
<path d="M0 120.63C0 190.869 45.8496 214.453 52.002 335.083C52.3682 346.362 59.9854 353.174 71.4844 353.174H189.697C201.196 353.174 208.813 346.362 209.18 335.083C215.332 214.453 261.255 190.942 261.255 120.703C261.255 52.4414 202.808 0 130.518 0C58.374 0 0 52.2949 0 120.63Z" fill="white" fill-opacity="0.85"/>
</g>
<defs>
<clipPath id="clip0_2_7">
<rect width="261.255" height="465.234" fill="white"/>
</clipPath>
</defs>
</svg>
